<?xml version="1.0" encoding="UTF-8"?>
<svg xmlns="http://www.w3.org/2000/svg" xmlns:xlink="http://www.w3.org/1999/xlink" width="24pt" height="24pt" viewBox="0 0 24 24" version="1.1">
<g id="surface1">
<path style=" stroke:none;fill-rule:nonzero;fill:rgb(100%,100%,100%);fill-opacity:1;" d="M 16.5 3 C 14.761719 3 13.089844 3.808594 12 5.089844 C 10.910156 3.808594 9.238281 3 7.5 3 C 4.421875 3 2 5.421875 2 8.5 C 2 12.28125 5.398438 15.359375 10.550781 20.039062 L 12 21.351562 L 13.449219 20.03125 C 18.601562 15.359375 22 12.28125 22 8.5 C 22 5.421875 19.578125 3 16.5 3 Z M 12.101562 18.550781 L 12 18.648438 L 11.898438 18.550781 C 7.140625 14.238281 4 11.390625 4 8.5 C 4 6.5 5.5 5 7.5 5 C 9.039062 5 10.539062 5.988281 11.070312 7.359375 L 12.941406 7.359375 C 13.460938 5.988281 14.960938 5 16.5 5 C 18.5 5 20 6.5 20 8.5 C 20 11.390625 16.859375 14.238281 12.101562 18.550781 Z M 12.101562 18.550781 "/>
</g>
</svg>
